<svg xmlns="http://www.w3.org/2000/svg" width="48" height="48" viewBox="24 24 48 48" fill="none" data-name="basic">
	<path d="M72 72C56.7336 65.1482 39.2664 65.1482 24 72V24H72V72Z" fill="#0f2db3" />
	<path d="M44.3609 44.6003V47.9963L35.5119 47.9888V46.8817H35.7663C35.9886 46.8821 36.2019 46.7939 36.3591 46.6368C36.5163 46.4796 36.6044 46.2663 36.604 46.044V39.4914C36.6044 39.2691 36.5163 39.0558 36.3591 38.8986C36.2019 38.7414 35.9886 38.6532 35.7663 38.6536H35.5119V37.539H44.3609V40.935H43.2389C43.2389 40.935 43.0295 38.6461 41.0771 38.6461H39.9551V42.2066H40.3516C40.5762 42.2082 40.7921 42.1196 40.9509 41.9607C41.1098 41.8019 41.1983 41.586 41.1968 41.3614V40.935H42.3039V44.5928H41.1968V44.1739C41.1983 43.9493 41.1098 43.7334 40.9509 43.5746C40.7921 43.4157 40.5762 43.3272 40.3516 43.3287H39.9551V46.8892H41.0771C43.0295 46.8892 43.2389 44.6003 43.2389 44.6003H44.3609Z" fill="white" />
	<path d="M29.6924 38.6461C28.406 38.6537 27.3428 39.6516 27.2539 40.935H26.1767V37.5465H34.5769C34.5769 37.5465 34.6442 40.1646 32.1608 42.9397C32.1608 42.9397 29.7971 45.6849 29.7373 46.8892H31.0987C33.051 46.8892 33.2529 44.6003 33.2529 44.6003H34.375V47.9963H25.7878C25.7878 47.9963 25.4736 45.4231 28.4507 42.3039C28.4507 42.3039 30.2833 40.2543 30.7097 38.6386L29.6924 38.6461Z" fill="white" />
	<path d="M51.0856 47.9888V46.8817H50.8313C50.6089 46.8821 50.3956 46.7939 50.2385 46.6367C50.0813 46.4795 49.9931 46.2662 49.9935 46.0439V39.4913C49.9931 39.269 50.0813 39.0557 50.2385 38.8985C50.3956 38.7413 50.6089 38.6532 50.8313 38.6536H51.0856V37.5465H45.5129V38.6536H45.7672C45.9907 38.6516 46.2056 38.7391 46.3644 38.8964C46.5231 39.0537 46.6124 39.2679 46.6125 39.4913V46.0439C46.6124 46.2674 46.5231 46.4816 46.3644 46.6389C46.2056 46.7962 45.9907 46.8836 45.7672 46.8817H45.5129V47.9888H51.0856Z" fill="white" />
	<path d="M56.935 38.6461C58.2219 38.6493 59.2854 39.6506 59.3661 40.935H60.4507V37.5465H52.4245C52.4245 37.5465 51.1529 39.2071 54.474 42.9397C54.474 42.9397 56.8303 45.6849 56.8901 46.8892H55.5362C53.5839 46.8892 53.3745 44.6003 53.3745 44.6003H52.245V47.9963H60.3385C60.3385 47.9963 61.8121 46.4105 58.1692 42.3039C58.1692 42.3039 56.2618 40.3441 55.9102 38.6386L56.935 38.6461Z" fill="white" />
	<path d="M68.7536 40.935C68.6695 39.6523 67.608 38.6529 66.3226 38.6461L65.3127 38.6386C65.6568 40.3441 67.5643 42.3039 67.5643 42.3039C71.1996 46.4105 69.7335 47.9963 69.7335 47.9963H61.64V44.6003H62.762C62.762 44.6003 62.9715 46.8892 64.9238 46.8892H66.2777C66.2178 45.6849 63.8616 42.9397 63.8616 42.9397C60.5404 39.2071 61.812 37.5465 61.812 37.5465H69.8307V40.935H68.7536Z" fill="white" />
</svg>
