<svg width="16" height="16" viewBox="0 0 16 16" fill="none" xmlns="http://www.w3.org/2000/svg">
<path fill-rule="evenodd" clip-rule="evenodd" d="M11.1215 2.63602C13.4647 4.97917 13.4647 8.77816 11.1215 11.1213C8.7784 13.4644 4.97941 13.4644 2.63627 11.1213C0.29312 8.77816 0.29312 4.97917 2.63627 2.63602C4.97941 0.292876 8.7784 0.292876 11.1215 2.63602ZM9.70733 4.05023C11.2694 5.61233 11.2694 8.14499 9.70733 9.70709C8.14524 11.2692 5.61258 11.2692 4.05048 9.70709C2.48838 8.14499 2.48838 5.61233 4.05048 4.05023C5.61258 2.48814 8.14524 2.48814 9.70733 4.05023Z" fill="#32373E"/>
<path d="M12.5354 12.5359C12.8538 12.2175 13.1397 11.879 13.3932 11.5244L15.7174 15.0107L15.0103 15.7178L11.524 13.3936C11.8785 13.1401 12.2171 12.8542 12.5354 12.5359Z" fill="#32373E"/>
</svg>
