<svg width="22" height="20" viewBox="0 0 22 20" fill="none" xmlns="http://www.w3.org/2000/svg">
	<path d="M1 6H2.16667L2.66667 8M2.66667 8L4.33333 14.6667H13L14.6667 8H2.66667Z" stroke="#32373E" stroke-width="2" stroke-linecap="square" />
	<path d="M4.33203 19C4.88432 19 5.33203 18.5523 5.33203 18C5.33203 17.4477 4.88432 17 4.33203 17C3.77975 17 3.33203 17.4477 3.33203 18C3.33203 18.5523 3.77975 19 4.33203 19Z" stroke="#32373E" stroke-width="2" stroke-linecap="square" />
	<path d="M13 19C13.5523 19 14 18.5523 14 18C14 17.4477 13.5523 17 13 17C12.4477 17 12 17.4477 12 18C12 18.5523 12.4477 19 13 19Z" stroke="#32373E" stroke-width="2" stroke-linecap="square" />
</svg>
