<svg width="16" height="16" viewBox="0 0 16 16" fill="none" xmlns="http://www.w3.org/2000/svg">
<path fill-rule="evenodd" clip-rule="evenodd" d="M8 7C9.10457 7 10 6.10457 10 5C10 3.89543 9.10457 3 8 3C6.89543 3 6 3.89543 6 5C6 6.10457 6.89543 7 8 7ZM8 9C10.2091 9 12 7.20914 12 5C12 2.79086 10.2091 1 8 1C5.79086 1 4 2.79086 4 5C4 7.20914 5.79086 9 8 9Z" fill="#32373E"/>
<path fill-rule="evenodd" clip-rule="evenodd" d="M12 15.9987C11.9993 13.7902 10.2087 12 8 12C5.79129 12 4.0007 13.7902 4 15.9987H2C2.0007 12.6856 4.68673 10 8 10C11.3133 10 13.9993 12.6856 14 15.9987H12Z" fill="#32373E"/>
</svg>
